
<svg  xmlns="http://www.w3.org/2000/svg"
width="31.88" aria-hidden="true" role="img" class="iconify iconify--logos"  viewBox="0 0 256 257" height="32" "
 preserveAspectRatio="xMidYMid meet">

<g transform="translate(0.000000,160.000000) scale(0.100000,-0.100000)"
fill="#000000" stroke="none">
<path d="M540 1302 c0 -22 6 -32 23 -37 12 -4 139 -11 282 -14 l260 -6 65 -31
c161 -76 243 -208 244 -394 1 -225 -127 -385 -349 -436 -11 -3 -104 -8 -207
-11 -144 -5 -191 -3 -203 7 -12 10 -15 45 -15 210 0 146 -3 200 -12 207 -7 5
-30 10 -50 12 l-38 3 0 -246 0 -246 26 -10 c42 -17 478 -12 552 5 129 31 240
102 306 197 151 220 108 538 -92 691 -136 104 -230 125 -554 127 l-238 1 0
-29z"/>
<path d="M2877 1314 c-4 -4 -7 -231 -7 -505 0 -388 -3 -498 -12 -502 -7 -3 -4
-6 8 -6 11 -1 25 4 32 11 18 18 17 967 -1 992 -7 9 -16 14 -20 10z"/>
<path d="M3140 1314 c0 -3 9 -24 19 -47 11 -23 69 -154 131 -292 61 -137 143
-321 182 -408 47 -105 74 -155 81 -148 7 7 2 28 -15 63 -14 29 -102 227 -197
440 -95 213 -179 389 -187 392 -8 3 -14 3 -14 0z"/>
<path d="M4016 1288 c-231 -528 -437 -973 -452 -979 -16 -6 -15 -8 6 -8 14 0
31 3 38 7 14 9 442 964 442 986 0 30 -20 26 -34 -6z"/>
<path d="M2347 1279 c7 -7 15 -10 18 -7 3 3 -2 9 -12 12 -14 6 -15 5 -6 -5z"/>
<path d="M1804 1260 c16 -5 122 -8 235 -7 113 1 193 4 176 8 -46 10 -445 9
-411 -1z"/>
<path d="M2380 1261 c0 -6 7 -11 16 -11 8 0 13 -4 10 -9 -3 -5 6 -16 19 -25
14 -9 23 -21 20 -27 -4 -5 -3 -8 2 -7 4 2 10 -1 12 -7 3 -5 13 -19 23 -30 12
-12 17 -29 14 -47 -2 -16 0 -26 4 -23 5 3 11 -3 14 -12 9 -28 5 -153 -5 -153
-5 0 -6 -7 -3 -15 12 -31 -91 -177 -111 -157 -4 4 -5 1 -3 -6 2 -7 -21 -24
-55 -40 l-58 -27 56 -77 c30 -42 54 -82 52 -90 -2 -7 -2 -9 1 -5 2 4 10 3 18
-4 8 -6 11 -15 8 -20 -3 -5 -1 -9 4 -9 14 0 92 -116 84 -125 -4 -5 -2 -6 3 -3
6 3 16 0 22 -7 10 -11 8 -15 -12 -18 -24 -4 -24 -4 2 -3 14 0 28 6 30 12 2 6
-44 78 -102 159 -58 82 -105 157 -105 166 0 11 21 30 54 49 104 59 158 154
159 279 1 96 -22 166 -72 223 -41 45 -101 87 -101 69z"/>
<path d="M4501 1254 c-299 -80 -423 -426 -250 -696 31 -48 137 -138 163 -138
6 0 -3 8 -19 18 -46 28 -121 117 -149 175 -82 175 -42 396 96 523 81 75 161
110 281 123 l82 8 -75 1 c-41 0 -99 -6 -129 -14z"/>
<path d="M2335 1230 c10 -11 20 -20 23 -20 3 0 -3 9 -13 20 -10 11 -20 20 -23
20 -3 0 3 -9 13 -20z"/>
<path d="M4998 1198 c109 -112 151 -201 159 -343 7 -111 -7 -183 -53 -274 -79
-159 -239 -261 -439 -280 l-80 -8 71 -2 c145 -2 293 56 389 154 218 222 185
611 -65 784 -28 20 -25 14 18 -31z"/>
<path d="M2453 1065 c0 -8 4 -12 9 -9 5 3 6 10 3 15 -9 13 -12 11 -12 -6z"/>
<path d="M2457 918 c-7 -5 0 -6 17 -4 16 3 31 7 33 10 8 8 -37 2 -50 -6z"/>
<path d="M2336 713 c-6 -14 -5 -15 5 -6 7 7 10 15 7 18 -3 3 -9 -2 -12 -12z"/>
<path d="M1960 696 c0 -2 8 -10 18 -17 15 -13 16 -12 3 4 -13 16 -21 21 -21
13z"/>
<path d="M1853 652 c-25 -3 -33 -8 -33 -23 0 -13 -4 -18 -12 -13 -10 6 -10 4
0 -7 8 -9 12 -55 12 -155 0 -127 -2 -143 -17 -147 -12 -3 -9 -5 8 -6 16 -1 29
5 33 15 3 9 6 77 6 153 0 93 4 141 12 149 8 8 61 12 168 13 85 0 164 4 175 9
13 6 -19 9 -90 10 -60 1 -137 2 -170 3 -33 1 -75 1 -92 -1z"/>
</g>
</svg>
